<svg xmlns="http://www.w3.org/2000/svg" width="61" height="50" viewBox="0 0 61 50" fill="none">
  <g clip-path="url(#clip0_63_2897)">
    <path d="M37.9605 23.2597L37.9605 0.316233L60.791 0.316231L60.791 20.2707C60.791 27.0514 60.2678 32.3098 59.2212 36.0184C58.1747 39.7547 55.944 42.7991 52.5291 45.2069C49.1417 47.6147 44.2671 48.8878 37.9605 49.0815L37.9605 39.3949C45.3962 38.2879 49.0866 33.6383 49.0866 25.5015L49.0866 23.2597L37.9605 23.2597ZM0.285921 23.2597L0.285919 0.316236L23.1165 0.316234L23.1165 20.2707C23.1165 27.0514 22.5932 32.3098 21.5742 36.0184C20.5553 39.727 18.3245 42.7991 14.8545 45.2069C11.412 47.587 6.53747 48.8878 0.285923 49.0815L0.285922 39.3949C7.72169 38.2879 11.412 33.6383 11.412 25.5015C11.412 25.0033 11.3845 24.2561 11.3294 23.2597L0.285921 23.2597Z" fill="white"/>
  </g>
  <defs>
    <clipPath id="clip0_63_2897">
      <rect width="60.5051" height="48.7653" fill="white" transform="translate(60.791 49.0815) rotate(180)"/>
    </clipPath>
  </defs>
</svg>