<svg xmlns="http://www.w3.org/2000/svg" width="86" height="114" viewBox="0 0 86 114" fill="none">
  <g clip-path="url(#clip0_63_2620)">
    <path d="M46.9349 0.620117C49.5849 1.15373 52.3113 1.44267 54.8733 2.26056C71.4217 7.55004 81.5282 18.7745 85.0954 35.8989C86.9602 44.8467 84.8383 53.1864 81.2224 61.2884C76.4182 72.0561 69.9647 81.8126 62.6425 90.9538C56.7635 98.2962 50.4327 105.27 44.3058 112.415C43.9954 112.776 43.7406 113.188 43.363 113.71C40.6945 110.802 38.2276 108.185 35.8416 105.496C26.1984 94.6215 17.2108 83.248 9.95347 70.5835C6.60162 64.7371 3.69917 58.6763 1.98271 52.1192C-0.750655 41.6894 0.977386 31.7931 6.16382 22.568C13.069 10.2927 23.6736 3.18796 37.5118 0.957992C38.1974 0.848474 38.8831 0.734296 39.5664 0.620117C42.0218 0.620117 44.4795 0.620117 46.9349 0.620117ZM43.2681 18.5484C29.9255 18.5368 19.0732 29.3884 19.0431 42.7776C19.0129 56.1574 29.8306 67.0696 43.1684 67.1139C56.5642 67.1581 67.4722 56.2459 67.4629 42.8148C67.4537 29.421 56.6245 18.5624 43.2704 18.5484H43.2681Z" fill="black" fill-opacity="0.2"/>
    <path d="M26.9395 42.7961C26.9418 33.7737 34.2639 26.3754 43.2169 26.3521C52.2207 26.3288 59.5684 33.7457 59.5661 42.8567C59.5638 51.8838 52.2532 59.2704 43.2863 59.3077C34.3056 59.345 26.9371 51.9024 26.9395 42.7961Z" fill="black" fill-opacity="0.2"/>
  </g>
  <defs>
    <clipPath id="clip0_63_2620">
      <rect width="85.0886" height="113.092" fill="white" transform="translate(0.697266 0.620117)"/>
    </clipPath>
  </defs>
</svg>