<svg xmlns="http://www.w3.org/2000/svg" width="201" height="77" viewBox="0 0 201 77" fill="none">
  <g clip-path="url(#clip0_1_41)">
    <path d="M184.497 10.2432C184.497 15.9001 179.824 20.4863 174.057 20.4863C168.29 20.4863 163.617 15.9001 163.617 10.2432C163.617 4.58626 168.293 0 174.058 0C179.824 0 184.498 4.58626 184.498 10.2432H184.497Z" fill="url(#paint0_linear_1_41)"/>
    <path d="M0 19.3835C0 19.3835 42.7158 13.9389 106.601 24.8075C160.586 33.9903 186.938 23.1616 201 10.2444C201 10.2444 182.489 46.4648 99.5439 29.9908C18.321 16.7558 0 19.3835 0 19.3835Z" fill="url(#paint1_linear_1_41)"/>
    <path d="M53.7158 53.3558L44.813 38.2214H46.48L54.4437 51.7679L62.4231 38.2214H64.0901L55.1716 53.3558V63.6311H53.7145V53.3558H53.7158Z" fill="#DFBF5F"/>
    <path d="M29.6672 38.2214C31.2148 38.2214 32.5395 38.6821 33.6412 39.6035C34.7429 40.5248 35.2924 41.6367 35.2924 42.9389C35.2924 44.2412 34.4937 45.4753 32.8949 46.6077C34.3048 46.8509 35.6321 47.5496 36.8781 48.7039C38.8913 50.409 39.8986 52.4679 39.8986 54.882C39.8986 57.2961 38.8913 59.3653 36.8781 61.1231C35.0026 62.7535 32.7625 63.5848 30.1577 63.617V63.6324H24.3056V38.2227H29.6672V38.2214ZM26.0054 39.6511V46.147H30.1013C31.0456 46.0736 31.8509 45.7764 32.5172 45.2578C33.2845 44.6646 33.6687 43.8925 33.6687 42.9389C33.6687 41.9854 33.2845 41.2004 32.5172 40.5802C31.7499 39.9612 30.7991 39.6511 29.6672 39.6511H26.0054ZM26.0054 47.6706V62.2015H30.159V62.2169C32.2601 62.1011 34.0727 61.3753 35.5967 60.0409C37.2703 58.5906 38.107 56.8701 38.107 54.8794C38.107 52.8887 37.2703 51.1901 35.5967 49.781C33.9232 48.3732 31.9021 47.6693 29.5361 47.6693H26.0054V47.6706Z" fill="white"/>
    <path d="M95.1017 53.8101H86.0546L82.4125 63.6324H80.8452L90.5782 37.403L100.295 63.6324H98.7439L95.1017 53.8101ZM94.5626 52.3675L90.5782 41.6161L86.5937 52.3675H94.5626Z" fill="white"/>
    <path d="M112.796 54.7237C112.654 54.734 112.507 54.7392 112.355 54.7392H107.913V63.6324H106.443V37.9962H113.302C115.294 38.2639 116.987 39.081 118.38 40.4476C120.046 42.0819 120.879 44.0533 120.879 46.3606C120.879 48.6679 120.046 50.6548 118.38 52.289C117.226 53.4214 115.904 54.1639 114.412 54.5165L120.438 63.6337H118.626L112.796 54.725V54.7237ZM107.913 39.4542V53.2825H112.355C114.292 53.2825 115.95 52.6069 117.327 51.2557C118.704 49.9045 119.393 48.2728 119.393 46.3606C119.393 44.4484 118.704 42.8193 117.327 41.4732C115.95 40.1272 114.292 39.4542 112.355 39.4542H107.913Z" fill="white"/>
    <path d="M140.161 53.8101H131.114L127.472 63.6324H125.905L135.638 37.403L145.355 63.6324H143.803L140.161 53.8101ZM139.622 52.3675L135.638 41.6161L131.653 52.3675H139.622Z" fill="white"/>
    <path d="M175.542 37.9962V63.6324H174.071V37.9962H175.542Z" fill="white"/>
    <path d="M157.304 37.7131C158.809 37.7131 160.097 38.1776 161.167 39.1067C162.237 40.0358 162.772 41.1579 162.772 42.4718C162.772 43.7856 161.996 45.03 160.442 46.1727C161.812 46.4185 163.103 47.1237 164.313 48.2883C166.27 50.0088 167.25 52.0857 167.25 54.5217C167.25 56.9576 166.271 59.0462 164.313 60.8181C162.49 62.4627 160.313 63.3017 157.781 63.3339V63.3493H152.092V37.7131H157.304ZM153.745 39.1556V45.7095H157.727C158.645 45.6348 159.427 45.3363 160.076 44.8125C160.822 44.2142 161.194 43.4343 161.194 42.4731C161.194 41.5118 160.821 40.7191 160.076 40.0937C159.329 39.4683 158.406 39.1569 157.304 39.1569H153.745V39.1556ZM153.745 47.2472V61.9081H157.782V61.9235C159.825 61.8064 161.587 61.0742 163.066 59.7282C164.692 58.2651 165.507 56.5291 165.507 54.5204C165.507 52.5116 164.692 50.7976 163.066 49.3769C161.438 47.9563 159.475 47.2459 157.176 47.2459H153.745V47.2472Z" fill="white"/>
    <path d="M110.895 68.9226C111.193 68.9046 111.492 68.8878 111.79 68.875C112.746 70.93 113.563 73.0392 114.461 75.1212C114.186 75.1212 113.635 75.1187 113.36 75.1187C113.126 74.4366 112.86 73.7662 112.59 73.0996C111.602 73.0906 110.615 73.0932 109.627 73.1241C109.171 73.8756 109.175 75.3207 107.982 75.1804C108.873 73.0572 109.96 71.024 110.894 68.9239L110.895 68.9226ZM111.118 69.6973C110.714 70.5787 110.348 71.4731 109.976 72.3687C110.739 72.4047 111.506 72.4047 112.272 72.3829C111.862 71.4988 111.579 70.5607 111.118 69.6973Z" fill="#DEBE60"/>
    <path d="M135.198 68.9123C136.469 68.9123 137.741 68.9123 139.014 68.9174C138.941 69.0474 138.795 69.3086 138.724 69.4412C137.871 69.4322 137.016 69.4322 136.164 69.436C136.168 70.1425 136.168 70.8515 136.168 71.5593C136.96 71.576 137.749 71.5786 138.54 71.5812V72.0457C137.753 72.0856 136.964 72.1165 136.175 72.1371C136.169 72.9748 136.169 73.8177 136.161 74.6593C137.218 74.7584 138.446 74.4148 139.352 75.0711C137.972 75.1753 136.585 75.1122 135.201 75.1277C135.198 73.0572 135.193 70.9854 135.198 68.9123Z" fill="#DEBE60"/>
    <path d="M146.525 68.9123C146.884 68.9174 147.245 68.9264 147.607 68.9316C147.573 71.0523 147.63 73.173 147.585 75.2937C147.607 76.2498 146.571 76.8057 145.742 77C146.078 76.3695 146.583 75.7634 146.522 75.0093C146.53 72.9761 146.513 70.9429 146.525 68.9136V68.9123Z" fill="#DEBE60"/>
    <path d="M157.099 68.9226C157.391 68.9007 157.686 68.8775 157.985 68.8518C158.906 70.93 159.758 73.0391 160.667 75.1238H159.525C159.247 74.4611 159.003 73.7868 158.788 73.1048C157.8 73.1022 156.817 73.1048 155.836 73.1074C155.382 73.8872 155.376 75.3657 154.134 75.1817C155.098 73.0842 156.06 70.9867 157.1 68.9226H157.099ZM157.294 69.75C156.923 70.6315 156.548 71.5065 156.118 72.3597C156.912 72.4047 157.714 72.4086 158.511 72.3288C158.06 71.4885 157.682 70.6173 157.294 69.75Z" fill="#DEBE60"/>
    <path d="M167.605 68.9226C169.393 69.032 171.494 68.413 172.989 69.6882C173.917 70.2905 173.796 71.5246 173.766 72.4768C173.73 73.8872 172.406 74.9578 171.047 75.1212C169.904 75.2371 168.757 75.1431 167.612 75.1161C167.601 73.052 167.607 70.9879 167.607 68.9239L167.605 68.9226ZM168.598 69.4566C168.618 71.1926 168.61 72.9285 168.607 74.6631C169.767 74.5872 171.182 74.9848 172.118 74.1098C172.918 72.9967 173.065 71.3161 172.181 70.2056C171.289 69.2173 169.81 69.3331 168.599 69.4566H168.598Z" fill="#DEBE60"/>
    <path d="M182.935 68.9843C184.244 68.8389 185.816 68.6498 186.86 69.6175C188.664 71.0651 188.068 74.5126 185.709 75.053C184.421 75.2499 182.923 75.3541 181.832 74.5151C180.175 72.9838 180.541 69.593 182.935 68.9843ZM183.167 69.4939C182.547 69.6097 181.996 70.0949 182.036 70.7537C182.018 71.863 181.746 73.1781 182.561 74.0956C183.193 74.8253 184.252 74.6927 185.121 74.6644C185.839 74.6734 186.582 74.1548 186.652 73.42C186.78 72.3957 186.894 71.2697 186.409 70.3149C185.711 69.3086 184.269 69.216 183.167 69.4952V69.4939Z" fill="#DEBE60"/>
    <path d="M196.41 68.9625C197.211 68.8351 198.028 68.9174 198.835 68.9264C198.827 69.1015 198.806 69.4528 198.797 69.6278C197.847 69.6496 196.572 69.0577 195.888 69.9598C195.6 70.6238 196.327 71.0947 196.874 71.2916C197.739 71.6095 198.881 71.7896 199.224 72.7728C199.652 73.7701 198.78 74.7686 197.855 75.0788C196.825 75.2692 195.737 75.2062 194.765 74.8085C194.828 74.6541 194.958 74.344 195.019 74.1921C195.956 74.2578 196.854 74.851 197.806 74.5332C198.429 74.4238 198.374 73.7083 198.444 73.2438C198.326 73.1138 198.094 72.8551 197.978 72.7264C196.911 72.3687 195.792 72.0058 195.008 71.1681C195 70.9043 194.985 70.378 194.98 70.1155C195.398 69.6767 195.777 69.1182 196.41 68.9638V68.9625Z" fill="#DEBE60"/>
    <path d="M86.1438 75.1212C86.1385 73.0687 86.1333 71.0149 86.1464 68.9625C87.4094 68.9625 88.7839 68.6755 89.9525 69.2752C90.9808 69.8298 90.9349 71.4692 89.9565 72.0496C89.2443 72.4858 88.237 72.8693 87.4396 72.4356C88.0587 72.213 88.7997 72.1847 89.2876 71.7034C89.7269 71.3032 89.6351 70.6727 89.6928 70.1438C89.104 69.5132 87.875 68.8621 87.1681 69.5724C87.1038 71.4242 87.1747 73.2785 87.1432 75.1302C86.8114 75.1277 86.4769 75.1251 86.1438 75.1225V75.1212Z" fill="#DEBE60"/>
    <path d="M98.0002 68.9123C98.2336 68.9149 98.7006 68.9174 98.9327 68.9213C98.9117 70.8245 98.9379 72.7303 98.9143 74.6348C99.9216 74.7442 101.051 74.4238 101.937 75.026C100.631 75.1997 99.3144 75.1161 97.9989 75.1277C97.9949 73.0572 97.9989 70.9854 97.9989 68.9123H98.0002Z" fill="#DEBE60"/>
    <path d="M121.245 68.8158C121.655 68.9869 122.04 69.2237 122.358 69.5338C123.829 70.8683 125.189 72.3069 126.686 73.6079C126.679 72.0483 126.675 70.4848 126.689 68.9251C126.878 68.9303 127.261 68.9444 127.452 68.9509C127.469 71.0098 127.423 73.0674 127.479 75.1238C127.257 75.1264 127.037 75.1264 126.819 75.1264C125.191 73.5127 123.472 71.9891 121.824 70.3921C121.842 71.9814 121.891 73.5693 121.836 75.1573L121.228 75.1096C121.228 73.0121 121.201 70.9133 121.245 68.8158Z" fill="#DEBE60"/>
  </g>
  <defs>
    <linearGradient id="paint0_linear_1_41" x1="168.525" y1="18.9305" x2="179.29" y2="1.37167" gradientUnits="userSpaceOnUse">
      <stop stop-color="#EBD9A1"/>
      <stop offset="0.53" stop-color="#E4C15D"/>
      <stop offset="1" stop-color="#E3A900"/>
    </linearGradient>
    <linearGradient id="paint1_linear_1_41" x1="70.198" y1="62.4215" x2="129.183" y2="-33.7869" gradientUnits="userSpaceOnUse">
      <stop stop-color="#EAD8A1"/>
      <stop offset="1" stop-color="#DEBD5F"/>
    </linearGradient>
    <clipPath id="clip0_1_41">
      <rect width="201" height="77" fill="white"/>
    </clipPath>
  </defs>
</svg>