<svg width="72" height="73" viewBox="0 0 72 73" fill="none" xmlns="http://www.w3.org/2000/svg">
<g id="Camada_1" clip-path="url(#clip0_63_2916)">
<path id="Vector" d="M36.1663 42.7934C47.6984 42.7934 57.7675 49.0697 63.1498 58.3893C68.0082 52.411 70.9342 44.7801 70.9342 36.472C70.9342 17.2729 55.3654 1.7041 36.1663 1.7041C16.9672 1.7041 1.39844 17.2729 1.39844 36.472C1.39844 44.7801 4.31533 52.402 9.18283 58.3893C14.5651 49.0697 24.6342 42.7934 36.1663 42.7934Z" fill="#D8D8D8"/>
<path id="Vector_2" d="M36.32 39.1812C43.5518 39.1812 49.4144 33.3186 49.4144 26.0868C49.4144 18.855 43.5518 12.9924 36.32 12.9924C29.0881 12.9924 23.2256 18.855 23.2256 26.0868C23.2256 33.3186 29.0881 39.1812 36.32 39.1812Z" fill="white"/>
<path id="Vector_3" d="M36.1661 71.2399C47.057 71.2399 56.7739 66.2279 63.1496 58.3893C57.7673 49.0697 47.6982 42.7935 36.1661 42.7935C24.634 42.7935 14.5649 49.0697 9.18262 58.3893C15.5582 66.2279 25.2752 71.2399 36.1661 71.2399Z" fill="white"/>
<path id="Vector_4" d="M36.1663 1.7041C16.9672 1.7041 1.39844 17.2729 1.39844 36.472C1.39844 44.7801 4.31533 52.402 9.18283 58.3893C15.5584 66.2278 25.2754 71.2398 36.1663 71.2398C47.0572 71.2398 56.7741 66.2278 63.1498 58.3893C68.0082 52.411 70.9342 44.7801 70.9342 36.472C70.9342 17.2729 55.3654 1.7041 36.1663 1.7041Z" stroke="#D8D8D8" stroke-width="2" stroke-miterlimit="10"/>
</g>
<defs>
<clipPath id="clip0_63_2916">
<rect width="71.3418" height="71.3418" fill="white" transform="translate(0.495117 0.801025)"/>
</clipPath>
</defs>
</svg>
